<?xml version="1.0" encoding="utf-8"?>
<!-- Generator: Adobe Illustrator 26.0.0, SVG Export Plug-In . SVG Version: 6.00 Build 0)  -->
<svg version="1.1" id="Layer_1" xmlns="http://www.w3.org/2000/svg" xmlns:xlink="http://www.w3.org/1999/xlink" x="0px" y="0px"
	 viewBox="0 0 776.4 246.9" style="enable-background:new 0 0 776.4 246.9;" xml:space="preserve">
<style type="text/css">
	.st0{fill:#1D1D1B;}
	.st1{fill:#E46126;}
	.st2{enable-background:new    ;}
	.st3{fill:#020202;}
</style>
<g>
	<g id="Layer_2_00000164497393554992324970000010715907992999797926_">
		<g id="Layer_1-2_00000129928582647108948260000012869966660018603432_">
			<path class="st0" d="M236.2,156.5c-1.1-2.5-2-5.1-2.7-7.8c-0.8-2.7-1.3-5.6-1.7-8.4c-2.9,5.2-7,9.7-11.8,13.1
				c-5.2,3.5-11.3,5.4-17.5,5.2c-11.4,0-20.1-2.9-26.2-8.7c-6.1-5.8-9.2-13.8-9.1-23.8c0-10.6,4.1-18.8,12.2-24.7
				c8.2-5.9,20.1-8.8,35.7-8.7h16.3v-8.6c0-5.2-1.4-9.2-4.1-12.1c-2.7-2.9-6.8-4.3-12.1-4.3c-4.7,0-8.4,1.1-11,3.4
				c-2.6,2.5-4.1,6-3.8,9.6l-28.2-0.1l-0.1-0.6c-0.5-9.1,3.5-17,11.9-23.6s19.4-10,33.1-9.9c12.9,0,23.4,3.3,31.5,9.8
				c8,6.5,12,15.8,12,27.9v44.7c0,4.8,0.4,9.6,1.1,14.3c0.8,4.5,2,9,3.7,13.3L236.2,156.5z M209.5,137c4.8,0.1,9.6-1.2,13.7-3.8
				c3.5-2,6.4-5.1,8.1-8.8v-15.3H215c-6.2,0-10.9,1.5-14.1,4.6c-3.1,2.9-4.8,7-4.7,11.2c-0.1,3.3,1.2,6.5,3.6,8.7
				C202.2,135.9,205.4,137,209.5,137L209.5,137z"/>
			<path class="st0" d="M273.6,102.8c0-17.1,3.7-30.8,11-41.3s17.8-15.7,31.2-15.7c5.1-0.1,10.1,1.1,14.6,3.5
				c4.5,2.5,8.4,5.9,11.4,10V0h29.3v156H346l-2.4-13.2c-3.1,4.7-7.2,8.6-12.1,11.4c-4.9,2.7-10.4,4-16,3.9
				c-13.3,0-23.6-4.9-30.9-14.6c-7.4-9.7-11-22.6-11-38.6V102.8z M302.8,104.9c0,9.5,1.6,17,4.8,22.5c3.2,5.5,8.4,8.2,15.7,8.2
				c3.8,0.1,7.6-0.8,11-2.6c3.2-1.8,5.8-4.3,7.7-7.5V79.2c-1.9-3.3-4.5-6-7.7-8c-3.3-1.9-7-2.9-10.8-2.9c-6.7-0.3-12.9,3.5-15.6,9.6
				c-3.3,6.4-4.9,14.7-4.9,24.9L302.8,104.9z"/>
			<path class="st0" d="M453.1,156.5c-1.1-2.5-2-5.1-2.8-7.8s-1.3-5.6-1.7-8.4c-2.9,5.2-7,9.7-11.8,13.1c-5.2,3.5-11.3,5.4-17.6,5.2
				c-11.3,0-20.1-2.9-26.2-8.7c-6.2-5.8-9.2-13.8-9.2-23.8c0-10.6,4.1-18.8,12.2-24.7c8.2-5.9,20.1-8.8,35.7-8.7H448v-8.6
				c0-5.2-1.4-9.2-4.1-12.1s-6.8-4.3-12.1-4.3c-4.7,0-8.4,1.2-10.9,3.4c-2.6,2.5-4,6-3.8,9.6l-28.2-0.1l-0.1-0.6
				c-0.5-9.1,3.5-17,11.9-23.7s19.4-10,33.1-10c12.9,0,23.4,3.3,31.5,9.8c8.1,6.6,12.1,15.9,12.1,28v44.7c0,4.8,0.3,9.6,1.1,14.3
				c0.8,4.5,2,9,3.6,13.3L453.1,156.5z M426.4,137c4.8,0.1,9.6-1.2,13.7-3.8c3.5-2,6.4-5.1,8.1-8.8v-15.3H432
				c-6.2,0-10.9,1.5-14.1,4.6c-3.1,2.9-4.8,7-4.8,11.2c-0.1,3.3,1.2,6.5,3.6,8.7C419,135.9,422.4,137,426.4,137L426.4,137z"/>
			<path class="st0" d="M594.6,105.4c0,16-3.7,28.8-11.1,38.6c-7.4,9.8-17.7,14.6-31,14.6c-5.2,0.1-10.4-1-15.1-3.2
				c-4.4-2.1-8.3-5.3-11.3-9.2v51.9H497V48.3h26.3l1.7,12.8c2.9-4.5,6.9-8.2,11.5-11c4.8-2.6,10.2-4,15.7-3.8
				c13.4,0,23.8,5.2,31.2,15.7s11.1,24.2,11.1,41.3L594.6,105.4z M565.5,103.2c0-10.2-1.7-18.5-5.1-24.8c-3.4-6.3-8.6-9.5-15.6-9.5
				c-3.9-0.1-7.8,0.8-11.3,2.7c-3.1,1.8-5.6,4.5-7.3,7.7v47.5c1.7,3,4.3,5.5,7.3,7c3.6,1.7,7.5,2.5,11.5,2.4c7,0,12.2-2.8,15.6-8.3
				s5-13,4.9-22.5L565.5,103.2z"/>
			<path class="st0" d="M641.6,21.8v26.6h18.1v20.5h-18.2V124c0,4.2,0.9,7.2,2.6,9c1.8,1.8,4.4,2.8,7,2.7c1.3,0,2.6-0.1,4-0.3
				c1.3-0.2,2.6-0.5,3.8-0.9l2.5,21.1c-2.8,1-5.7,1.7-8.6,2.2c-3,0.5-6.1,0.8-9.1,0.8c-10.1,0-17.8-2.8-23.2-8.3s-8.1-14.3-8.1-26.4
				V68.8h-15.8V48.4h15.8V21.8H641.6z"/>
			<path class="st0" d="M722.5,111.1l1.2,6h0.6L745,48.4h31.4l-43.9,124.3c-2.8,7.3-7,14-12.5,19.6c-5.3,5.3-13.2,7.9-23.7,7.9
				c-2.3,0-4.6-0.2-6.8-0.6c-2.1-0.4-4.7-1-7.7-1.7l3.4-21.3c0.9,0.1,1.8,0.3,2.8,0.4c0.9,0.1,1.8,0.2,2.7,0.2
				c4.8,0,8.5-1.2,11.1-3.5c2.6-2.4,4.7-5.5,6-8.8l3.4-8.4L672.9,48.4h31.4L722.5,111.1z"/>
			<g id="Group_3_00000011730935309102637650000004724311863240704675_">
				<path id="Path_1_00000144325571540846534020000007201171105342313391_" class="st1" d="M44.2,156.5h58.7
					c5.3,0,10.2-2.8,12.8-7.4L145,98.3c2.6-4.6,2.6-10.2,0-14.8l-29.4-50.8c-2.6-4.6-7.5-7.4-12.7-7.4H44.2
					c-5.3,0-10.1,2.8-12.8,7.4L1.9,83.5c-2.6,4.6-2.6,10.2,0,14.8l29.4,50.8C34,153.7,38.9,156.5,44.2,156.5z"/>
			</g>
			<g>
				<g class="st2">
					<path class="st3" d="M440.8,239.9l9.8-23.8h4.2l9.7,23.8h-3.8l-2.8-7h-10.7l-2.8,7H440.8z M448.4,230h8.3l-4.2-10.5L448.4,230z
						"/>
					<path class="st3" d="M466.6,239.9v-17.3h3.4v1.8c1.3-1.4,3.1-2.1,5.2-2.1c1.3,0,2.5,0.3,3.5,0.9c1,0.6,1.8,1.4,2.4,2.4
						s0.9,2.2,0.9,3.5V240h-3.4v-10.3c0-1.4-0.4-2.4-1.1-3.2s-1.8-1.2-3.2-1.2c-0.9,0-1.7,0.2-2.5,0.6c-0.7,0.4-1.3,0.9-1.8,1.7
						v12.5h-3.4V239.9z"/>
					<path class="st3" d="M491,239.9l9.8-23.8h4.2l9.7,23.8h-3.9l-2.8-7h-10.7l-2.8,7H491z M498.8,230h8.3l-4.2-10.5L498.8,230z"/>
					<path class="st3" d="M517,246.9v-24.3h3.4v1.7c1.5-1.3,3.2-1.9,5.3-1.9c1.6,0,3.1,0.4,4.4,1.2c1.3,0.8,2.4,1.9,3.2,3.2
						s1.2,2.8,1.2,4.5s-0.4,3.2-1.2,4.5c-0.8,1.4-1.8,2.4-3.2,3.2s-2.8,1.2-4.5,1.2c-1,0-1.9-0.2-2.8-0.5c-0.9-0.3-1.7-0.7-2.5-1.3
						v8.4H517V246.9z M525.2,237.2c1.1,0,2.1-0.3,3-0.8s1.6-1.2,2.1-2.1c0.5-0.9,0.8-1.9,0.8-3s-0.3-2.2-0.8-3.1
						c-0.5-0.9-1.2-1.6-2.1-2.1c-0.9-0.5-1.9-0.8-3-0.8c-1,0-1.9,0.2-2.7,0.5c-0.8,0.4-1.5,0.9-2.1,1.5v7.8c0.6,0.6,1.3,1.1,2.1,1.5
						C523.2,237,524.2,237.2,525.2,237.2z"/>
				</g>
				<g class="st2">
					<path class="st3" d="M545.9,240.2c-1.7,0-3.2-0.4-4.6-1.2c-1.4-0.8-2.5-1.9-3.3-3.2s-1.2-2.9-1.2-4.6c0-1.7,0.4-3.2,1.2-4.5
						s1.8-2.4,3.1-3.2s2.8-1.2,4.4-1.2c1.6,0,3,0.4,4.3,1.2s2.2,1.9,3,3.3c0.7,1.4,1.1,2.9,1.1,4.6v1h-13.7c0.2,1,0.5,1.8,1.1,2.6
						c0.5,0.7,1.2,1.3,2,1.8c0.8,0.4,1.7,0.6,2.7,0.6c0.8,0,1.7-0.1,2.4-0.4s1.4-0.6,2-1.1l2.2,2.1c-1,0.8-2.1,1.3-3.1,1.7
						C548.4,240,547.2,240.2,545.9,240.2z M540.2,229.8h10.2c-0.1-0.9-0.4-1.7-0.9-2.4s-1.1-1.2-1.8-1.6c-0.7-0.4-1.5-0.6-2.3-0.6
						c-0.9,0-1.7,0.2-2.4,0.6s-1.3,0.9-1.8,1.6C540.8,228.1,540.5,228.9,540.2,229.8z"/>
				</g>
				<g class="st2">
					<path class="st3" d="M554,239.9l6.7-8.9l-6.5-8.4h4l4.5,5.9l4.5-5.9h3.8l-6.4,8.4l6.8,8.9h-4l-4.8-6.4l-4.8,6.4H554z"/>
				</g>
				<g class="st2">
					<path class="st3" d="M580.2,240.3c-1.7,0-3.2-0.4-4.6-1.2c-1.4-0.8-2.5-1.9-3.3-3.2c-0.8-1.4-1.2-2.9-1.2-4.6
						c0-1.7,0.4-3.2,1.2-4.6c0.8-1.4,1.9-2.4,3.3-3.3c1.4-0.8,2.9-1.2,4.6-1.2c1.7,0,3.2,0.4,4.6,1.2s2.4,1.9,3.2,3.3
						s1.2,2.9,1.2,4.6c0,1.7-0.4,3.2-1.2,4.6c-0.8,1.4-1.9,2.4-3.2,3.2S581.9,240.3,580.2,240.3z M580.2,237.3c1.1,0,2-0.3,2.9-0.8
						s1.5-1.3,2-2.2s0.8-1.9,0.8-3.1c0-1.1-0.3-2.1-0.8-3s-1.2-1.6-2-2.2c-0.9-0.5-1.8-0.8-2.9-0.8c-1.1,0-2,0.3-2.9,0.8
						s-1.5,1.3-2,2.2s-0.8,1.9-0.8,3s0.2,2.2,0.8,3.1c0.5,0.9,1.2,1.6,2,2.2C578.2,237,579.2,237.3,580.2,237.3z"/>
					<path class="st3" d="M592.5,239.9v-17.3h3.4v1.8c1.3-1.4,3.1-2.1,5.2-2.1c1.3,0,2.5,0.3,3.5,0.9c1,0.6,1.8,1.4,2.4,2.4
						s0.9,2.2,0.9,3.5V240h-3.4v-10.3c0-1.4-0.4-2.4-1.1-3.2s-1.8-1.2-3.2-1.2c-0.9,0-1.7,0.2-2.5,0.6c-0.7,0.4-1.3,0.9-1.8,1.7
						v12.5h-3.4V239.9z"/>
				</g>
				<g class="st2">
					<path class="st3" d="M630.8,240.3c-1.8,0-3.4-0.3-4.9-0.9s-2.8-1.5-4-2.6c-1.1-1.1-2-2.4-2.7-3.9c-0.6-1.5-0.9-3.1-0.9-4.8
						s0.3-3.3,0.9-4.8c0.6-1.5,1.5-2.8,2.7-3.9s2.5-2,4-2.6s3.2-0.9,4.9-0.9c1.2,0,2.5,0.2,3.7,0.5s2.3,0.8,3.3,1.4s1.9,1.4,2.6,2.2
						l-2.4,2.5c-0.9-1.1-2-1.9-3.2-2.4c-1.3-0.6-2.6-0.8-4-0.8c-1.3,0-2.4,0.2-3.5,0.7s-2,1.1-2.8,1.9c-0.8,0.8-1.4,1.8-1.9,2.8
						c-0.4,1.1-0.7,2.3-0.7,3.6s0.2,2.5,0.7,3.5c0.4,1.1,1.1,2,1.9,2.9s1.8,1.5,2.9,1.9s2.3,0.7,3.5,0.7c1.4,0,2.7-0.3,3.9-0.8
						c1.2-0.6,2.3-1.3,3.2-2.4l2.3,2.4c-0.8,0.8-1.7,1.6-2.7,2.2c-1,0.6-2.1,1.1-3.3,1.4S632,240.3,630.8,240.3z"/>
				</g>
				<g class="st2">
					<path class="st3" d="M651.2,240.3c-1.7,0-3.2-0.4-4.6-1.2c-1.4-0.8-2.5-1.9-3.3-3.2c-0.8-1.4-1.2-2.9-1.2-4.6
						c0-1.7,0.4-3.2,1.2-4.6c0.8-1.4,1.9-2.4,3.3-3.3c1.4-0.8,2.9-1.2,4.6-1.2c1.7,0,3.2,0.4,4.6,1.2s2.4,1.9,3.2,3.3
						s1.2,2.9,1.2,4.6c0,1.7-0.4,3.2-1.2,4.6c-0.8,1.4-1.9,2.4-3.2,3.2C654.4,239.9,652.9,240.3,651.2,240.3z M651.2,237.3
						c1.1,0,2-0.3,2.9-0.8s1.5-1.3,2-2.2s0.8-1.9,0.8-3.1c0-1.1-0.3-2.1-0.8-3s-1.2-1.6-2-2.2c-0.9-0.5-1.8-0.8-2.9-0.8
						c-1.1,0-2,0.3-2.9,0.8s-1.5,1.3-2,2.2s-0.8,1.9-0.8,3s0.2,2.2,0.8,3.1c0.5,0.9,1.2,1.6,2,2.2
						C649.2,237,650.1,237.3,651.2,237.3z"/>
					<path class="st3" d="M663.4,239.9v-17.3h3.4v1.7c1.3-1.3,2.9-2,4.9-2c1.2,0,2.2,0.3,3.2,0.8c0.9,0.5,1.7,1.2,2.2,2.1
						c0.7-1,1.6-1.7,2.6-2.2s2.1-0.7,3.3-0.7c1.3,0,2.4,0.3,3.4,0.9c1,0.6,1.7,1.4,2.3,2.4s0.8,2.2,0.8,3.5V240h-3.4v-10.3
						c0-1.4-0.4-2.4-1.1-3.2s-1.7-1.2-2.9-1.2c-0.8,0-1.6,0.2-2.3,0.6c-0.7,0.4-1.3,1-1.8,1.8c0,0.2,0.1,0.5,0.1,0.7s0,0.5,0,0.7
						V240h-3.4v-10.3c0-1.4-0.4-2.4-1.1-3.2c-0.7-0.8-1.7-1.2-2.9-1.2c-0.8,0-1.6,0.2-2.2,0.5c-0.7,0.4-1.2,0.9-1.7,1.6V240h-3.4
						V239.9z"/>
				</g>
				<g class="st2">
					<path class="st3" d="M693.2,246.9v-24.3h3.4v1.7c1.5-1.3,3.2-1.9,5.3-1.9c1.6,0,3.1,0.4,4.4,1.2c1.3,0.8,2.4,1.9,3.2,3.2
						s1.2,2.8,1.2,4.5s-0.4,3.2-1.2,4.5c-0.8,1.4-1.8,2.4-3.2,3.2s-2.8,1.2-4.5,1.2c-1,0-1.9-0.2-2.8-0.5c-0.9-0.3-1.7-0.7-2.5-1.3
						v8.4h-3.3V246.9z M701.6,237.2c1.1,0,2.1-0.3,3-0.8s1.6-1.2,2.1-2.1c0.5-0.9,0.8-1.9,0.8-3s-0.3-2.2-0.8-3.1
						c-0.5-0.9-1.2-1.6-2.1-2.1c-0.9-0.5-1.9-0.8-3-0.8c-1,0-1.9,0.2-2.7,0.5c-0.8,0.4-1.5,0.9-2.1,1.5v7.8c0.6,0.6,1.3,1.1,2.1,1.5
						C699.7,237,700.6,237.2,701.6,237.2z"/>
				</g>
				<g class="st2">
					<path class="st3" d="M719.7,240.2c-1.2,0-2.3-0.2-3.3-0.7s-1.7-1.1-2.2-1.9c-0.5-0.8-0.8-1.7-0.8-2.8c0-1.6,0.6-2.9,1.9-3.9
						c1.2-0.9,3-1.4,5.1-1.4c1.7,0,3.3,0.3,4.7,1v-1.7c0-1.2-0.4-2.2-1.1-2.8c-0.7-0.6-1.8-0.9-3.1-0.9c-0.8,0-1.6,0.1-2.5,0.4
						s-1.8,0.6-2.9,1.1l-1.3-2.6c1.3-0.6,2.5-1.1,3.7-1.3c1.1-0.3,2.3-0.4,3.4-0.4c2.2,0,4,0.5,5.2,1.6s1.9,2.6,1.9,4.6V240h-3.3
						v-1.5c-0.8,0.6-1.6,1.1-2.5,1.4C721.7,240.1,720.7,240.2,719.7,240.2z M716.6,234.9c0,0.8,0.4,1.5,1.1,2
						c0.7,0.5,1.7,0.8,2.8,0.8c0.9,0,1.7-0.1,2.5-0.4s1.5-0.7,2.1-1.3v-2.9c-0.7-0.4-1.3-0.7-2.1-0.8s-1.5-0.3-2.4-0.3
						c-1.2,0-2.2,0.3-2.9,0.8C716.9,233.3,716.6,234,716.6,234.9z"/>
				</g>
				<g class="st2">
					<path class="st3" d="M732.2,239.9v-17.3h3.4v1.8c1.3-1.4,3.1-2.1,5.2-2.1c1.3,0,2.5,0.3,3.5,0.9c1,0.6,1.8,1.4,2.4,2.4
						s0.9,2.2,0.9,3.5V240h-3.4v-10.3c0-1.4-0.4-2.4-1.1-3.2s-1.8-1.2-3.2-1.2c-0.9,0-1.7,0.2-2.5,0.6c-0.7,0.4-1.3,0.9-1.8,1.7
						v12.5h-3.4V239.9z"/>
				</g>
				<g class="st2">
					<path class="st3" d="M752.4,247.2c-0.4,0-0.7,0-1-0.1c-0.3,0-0.6-0.1-0.8-0.2v-3c0.4,0.1,0.9,0.1,1.5,0.1
						c1.6,0,2.7-0.9,3.4-2.6l0.7-1.7l-6.9-17.4h3.8l5,13.2l5.6-13.2h3.7l-8.4,19.5c-0.5,1.2-1.1,2.2-1.7,3c-0.6,0.8-1.3,1.3-2.1,1.7
						C754.4,247.1,753.5,247.2,752.4,247.2z"/>
				</g>
			</g>
		</g>
	</g>
</g>
</svg>
